General                          : ChattChitto RG - Movies
==========
Complete name                    : Sex Drive Unrated & Cream-Filled 2009 BDRip.mp4
Format                           : MPEG-4
Format profile                   : Base Media
Codec ID                         : isom
File size                        : 2.41 GiB
Duration                         : 2h 9mn
Overall bit rate                 : 2 656 Kbps
Encoded date                     : UTC 2010-04-04 20:59:57

Video
==========
ID                               : 1
Format                           : AVC
Format/Info                      : Advanced Video Codec
Format profile                   : High@L3.1
Format settings, CABAC           : Yes
Format settings, ReFrames        : 3 frames
Codec ID                         : avc1
Codec ID/Info                    : Advanced Video Coding
Duration                         : 2h 9mn
Bit rate mode                    : Variable
Bit rate                         : 2 300 Kbps
Maximum bit rate                 : 17.2 Mbps
Width                            : 1 280 pixels
Height                           : 688 pixels
Display aspect ratio             : 1.860
Frame rate mode                  : Constant
Frame rate                       : 23.976 fps
Resolution                       : 8 bits
Colorimetry                      : 4:2:0
Scan type                        : Progressive
Bits/(Pixel*Frame)               : 0.109
Stream size                      : 2.09 GiB (87%)
Writing library                  : x264 core 76 r1271 496d79d
Encoded date                     : UTC 2010-04-04 20:33:54

Audio
==========
ID                               : 2
Format                           : AAC
Format/Info                      : Advanced Audio Codec
Format version                   : Version 4
Format profile                   : LC
Format settings, SBR             : No
Codec ID                         : 40
Duration                         : 2h 9mn
Bit rate mode                    : Variable
Bit rate                         : 352.8 Kbps
Maximum bit rate                 : 442 Kbps
Channel(s)                       : 6 channels
Channel positions                : Front: L C R, Side: L R, LFE
Sampling rate                    : 48.0 KHz
Stream size                      : 328 MiB (13%)
Encoded date                     : UTC 2010-04-04 21:01:05

Subtitles                        : English | Spanish




----------------------------------------------------
IMDB Link: http://www.imdb.com/title/tt1135985/
----------------------------------------------------


Screen Shots:
============== 
http://bayimg.com/caLJHaaCl 
http://bayimg.com/CALjgAacL 
http://bayimg.com/caLjeaAcL 
http://bayimg.com/CAlJDAacL 
http://bayimg.com/cALjCaacl


Plot:
======
Eighteen year old Ian finally gets the opportunity to lose his virginity when a woman he meets on-line offers to have sex with him if he drives to Knoxville to meet her. Accompanied by friends Lance and Felicia, whom Ian has a thing for, but she in turn has a thing for Lance, take off on a road trip in Ian's brother, Rex's beloved 1969 GTO -- without permission of course.   




Release Info:
==============
original name .... : Sex Drive Unrated & Cream-Filled 2009 BDRip.mp4
ripper.............: Recalled2Life (R2L)
encoder............: Recalled2Life (R2L)
video codec........: H264/.MP4                   
video bitrate......: 2300 Kbps                           
audio codec........: AAC-LC	                                        
aspect ratio.......: 1.860                              
resolution.........: 1280 x 688                             
genre..............: Adventure | Comedy          
runtime............: 2h 9mn
language...........: English                              
subtitles..........: English | Spanish
sample.............: Yes [12.1 MB]
2ch Audio..........: 2ch Audio for XBox Viewers 



Source:
========
Sex Drive Unrated & Cream-Filled 2009 Blu-Ray MPEG-4 AVC/Dolby Digital 5.1 [22.1 GB]


Notes:
=======
ChattChitto RG Encourages Burning this Film with ConvertXtoDVD.
Enhanced and Filtered for your viewing pleasure ;)